<?xml version="1.0" encoding="UTF-8"?>
<svg width="116px" height="40px" viewBox="0 0 116 40" version="1.1" xmlns="http://www.w3.org/2000/svg" xmlns:xlink="http://www.w3.org/1999/xlink">
    <!-- Generator: Sketch 63.1 (92452) - https://sketch.com -->
    <title>logoexpert-new</title>
    <desc>Created with Sketch.</desc>
    <defs>
        <path d="M65.486,27 L65.684,26.334 L58.232,26.334 L58.232,20.7 L65.09,20.7 L65.09,20.034 L58.232,20.034 L58.232,14.814 L65.45,14.814 L65.45,14.148 L57.512,14.148 L57.512,27 L65.486,27 Z M67.394,27 L70.562,22.59 L73.784,27 L74.576,27 L70.994,22.104 L74.18,17.766 L73.442,17.766 L70.58,21.636 L67.736,17.766 L66.944,17.766 L70.166,22.104 L66.638,27 L67.394,27 Z M76.664,30.492 L76.664,25.326 C76.964,25.962 77.399,26.448 77.969,26.784 C78.539,27.12 79.208,27.288 79.976,27.288 C81.248,27.288 82.25,26.85 82.982,25.974 C83.714,25.098 84.08,23.892 84.08,22.356 C84.08,20.832 83.726,19.638 83.018,18.774 C82.31,17.91 81.338,17.478 80.102,17.478 C78.578,17.478 77.432,18.174 76.664,19.566 L76.664,19.566 L76.664,17.766 L75.98,17.766 L75.98,30.492 L76.664,30.492 Z M79.94,26.676 C79.088,26.676 78.368,26.43 77.78,25.938 C77.384,25.59 77.093,25.167 76.907,24.669 C76.721,24.171 76.628,23.55 76.628,22.806 L76.628,22.806 L76.628,21.888 C76.628,21.252 76.733,20.673 76.943,20.151 C77.153,19.629 77.456,19.194 77.852,18.846 C78.452,18.342 79.184,18.09 80.048,18.09 C81.104,18.09 81.92,18.465 82.496,19.215 C83.072,19.965 83.36,21.018 83.36,22.374 C83.36,23.754 83.063,24.816 82.469,25.56 C81.875,26.304 81.032,26.676 79.94,26.676 Z M90.128,27.288 C91.088,27.288 91.886,27.06 92.522,26.604 C93.158,26.148 93.56,25.512 93.728,24.696 L93.728,24.696 L93.08,24.696 C92.912,25.344 92.582,25.836 92.09,26.172 C91.598,26.508 90.962,26.676 90.182,26.676 C89.042,26.676 88.166,26.319 87.554,25.605 C86.942,24.891 86.636,23.874 86.636,22.554 L86.636,22.554 L93.926,22.554 L93.926,22.086 C93.926,20.61 93.593,19.473 92.927,18.675 C92.261,17.877 91.322,17.478 90.11,17.478 C88.802,17.478 87.782,17.916 87.05,18.792 C86.318,19.668 85.952,20.886 85.952,22.446 C85.952,23.994 86.315,25.188 87.041,26.028 C87.767,26.868 88.796,27.288 90.128,27.288 Z M93.242,21.96 L86.636,21.96 C86.708,20.7 87.041,19.74 87.635,19.08 C88.229,18.42 89.048,18.09 90.092,18.09 C91.136,18.09 91.922,18.417 92.45,19.071 C92.978,19.725 93.242,20.688 93.242,21.96 L93.242,21.96 Z M96.806,27 L96.806,21.33 C96.806,20.874 96.854,20.502 96.95,20.214 C97.046,19.926 97.208,19.656 97.436,19.404 C97.772,19.02 98.135,18.738 98.525,18.558 C98.915,18.378 99.35,18.288 99.83,18.288 C100.01,18.288 100.214,18.306 100.442,18.342 L100.442,18.342 L100.532,17.676 C100.28,17.64 100.052,17.622 99.848,17.622 C98.6,17.622 97.586,18.204 96.806,19.368 L96.806,19.368 L96.806,17.766 L96.122,17.766 L96.122,27 L96.806,27 Z M105.374,27.198 C105.95,27.198 106.442,27.102 106.85,26.91 L106.85,26.91 L106.67,26.37 C106.298,26.514 105.89,26.586 105.446,26.586 C104.87,26.586 104.444,26.427 104.168,26.109 C103.892,25.791 103.754,25.29 103.754,24.606 L103.754,24.606 L103.754,18.378 L106.652,18.378 L106.652,17.766 L103.754,17.766 L103.754,15.21 L103.07,15.21 L103.07,17.766 L101.648,17.766 L101.648,18.378 L103.07,18.378 L103.07,24.552 C103.07,26.316 103.838,27.198 105.374,27.198 Z M111.746,27.288 C112.874,27.288 113.735,27.057 114.329,26.595 C114.923,26.133 115.22,25.464 115.22,24.588 C115.22,23.844 114.989,23.274 114.527,22.878 C114.065,22.482 113.3,22.194 112.232,22.014 L112.232,22.014 L111.08,21.816 C110.252,21.672 109.673,21.465 109.343,21.195 C109.013,20.925 108.848,20.526 108.848,19.998 C108.848,18.726 109.754,18.09 111.566,18.09 C112.382,18.09 113,18.222 113.42,18.486 C113.84,18.75 114.164,19.218 114.392,19.89 L114.392,19.89 L115.004,19.764 C114.8,18.984 114.419,18.408 113.861,18.036 C113.303,17.664 112.544,17.478 111.584,17.478 C110.504,17.478 109.667,17.703 109.073,18.153 C108.479,18.603 108.182,19.236 108.182,20.052 C108.182,20.748 108.413,21.285 108.875,21.663 C109.337,22.041 110.096,22.314 111.152,22.482 L111.152,22.482 L112.142,22.644 C113.006,22.788 113.618,23.01 113.978,23.31 C114.338,23.61 114.518,24.048 114.518,24.624 C114.518,25.32 114.287,25.836 113.825,26.172 C113.363,26.508 112.658,26.676 111.71,26.676 C110.762,26.676 110.033,26.502 109.523,26.154 C109.013,25.806 108.698,25.266 108.578,24.534 L108.578,24.534 L107.912,24.534 C108.008,25.422 108.383,26.103 109.037,26.577 C109.691,27.051 110.594,27.288 111.746,27.288 Z" id="path-1"></path>
        <linearGradient x1="75.0288671%" y1="6.69368192%" x2="25.0040305%" y2="93.3392157%" id="linearGradient-2">
            <stop stop-color="#EE345E" offset="0%"></stop>
            <stop stop-color="#372C74" offset="100%"></stop>
        </linearGradient>
    </defs>
    <g id="Page-1" stroke="none" stroke-width="1" fill="none" fill-rule="evenodd">
        <g id="logoexpert-new" fill-rule="nonzero">
            <g id="Experts">
                <use fill="#000000" xlink:href="#path-1"></use>
                <use fill="#191D25" xlink:href="#path-1"></use>
            </g>
            <circle id="Oval" fill="url(#linearGradient-2)" cx="20" cy="20" r="20"></circle>
            <path d="M14.5955882,29 L11,29 L11,11 L14.5955882,11 L14.5955882,29 Z M29,29 L18.1911765,29 L18.1911765,25.4044118 L29,25.4044118 L29,29 Z M29,21.8088235 L18.1911765,21.8088235 L18.1911765,18.2132353 L29,18.2132353 L29,21.8088235 Z M29,14.5955882 L18.1911765,14.5955882 L18.1911765,11 L29,11 L29,14.5955882 Z" id="Shape" fill="#FFFFFF"></path>
        </g>
    </g>
</svg>