<svg height="512pt" viewBox="0 -1 512 512" width="512pt" xmlns="http://www.w3.org/2000/svg" xmlns:xlink="http://www.w3.org/1999/xlink"><linearGradient id="a" gradientUnits="userSpaceOnUse" x1="0" x2="512.000163" y1="255.4991535" y2="255.4991535"><stop offset="0" stop-color="#00f2fe"/><stop offset=".0208" stop-color="#03effe"/><stop offset=".2931" stop-color="#24d2fe"/><stop offset=".5538" stop-color="#3cbdfe"/><stop offset=".7956" stop-color="#4ab0fe"/><stop offset="1" stop-color="#4facfe"/></linearGradient><path d="m202.605469 202.597656v105.796875c0 30.265625 24.625 54.890625 54.890625 54.890625 30.269531 0 54.894531-24.625 54.894531-54.890625v-105.796875c0-30.265625-24.625-54.890625-54.894531-54.890625-30.265625 0-54.890625 24.625-54.890625 54.890625zm69.863281 0v105.796875c0 8.253907-6.714844 14.96875-14.972656 14.96875-8.253906 0-14.96875-6.714843-14.96875-14.96875v-105.796875c0-8.253906 6.714844-14.96875 14.96875-14.96875 8.257812 0 14.972656 6.714844 14.972656 14.96875zm239.53125-34.929687v142.722656c0 29.167969-23.730469 52.894531-52.898438 52.894531-12.519531 0-24.027343-4.382812-33.097656-11.679687-9.132812 7.300781-20.699218 11.679687-33.269531 11.679687-29.445313 0-53.398437-23.953125-53.398437-53.394531v-142.222656c0-11.023438 8.9375-19.960938 19.960937-19.960938 11.027344 0 19.960937 8.9375 19.960937 19.960938v142.222656c0 7.429687 6.046876 13.472656 13.476563 13.472656s13.472656-6.042969 13.472656-13.472656v-142.222656c0-11.023438 8.9375-19.960938 19.960938-19.960938 11.023437 0 19.960937 8.9375 19.960937 19.960938v142.722656c0 7.152344 5.820313 12.972656 12.972656 12.972656 7.15625 0 12.976563-5.820312 12.976563-12.972656v-142.722656c0-11.023438 8.9375-19.960938 19.960937-19.960938 11.023438 0 19.960938 8.9375 19.960938 19.960938zm-471.078125 0v141.722656c0 7.707031 6.265625 13.972656 13.972656 13.972656 7.703125 0 13.972657-6.265625 13.972657-13.972656v-141.722656c0-11.023438 8.933593-19.960938 19.960937-19.960938 11.023437 0 19.960937 8.9375 19.960937 19.960938v141.722656c0 7.707031 6.265626 13.972656 13.972657 13.972656 7.703125 0 13.972656-6.265625 13.972656-13.972656v-141.722656c0-11.023438 8.933594-19.960938 19.960937-19.960938 11.023438 0 19.960938 8.9375 19.960938 19.960938v141.722656c0 29.71875-24.179688 53.894531-53.894531 53.894531-12.851563 0-24.664063-4.527344-33.933594-12.0625-9.273437 7.535156-21.082031 12.0625-33.933594 12.0625-29.71875 0-53.894531-24.175781-53.894531-53.894531v-141.722656c0-11.023438 8.933594-19.960938 19.960938-19.960938 11.023437 0 19.960937 8.9375 19.960937 19.960938zm467.8125 292.046875c5.105469 9.769531 1.320313 21.832031-8.453125 26.933594-9.773438 5.101562-21.832031 1.316406-26.933594-8.457032-6.378906-12.0625-24.875-37.058594-41.191406-37.058594-3.378906 0-9.421875 6.621094-14.699219 21.164063-5.480469 15.105469-7.371093 30.875-7.390625 31.03125-1.015625 8.683594-7.566406 15.707031-16.15625 17.3125-8.597656 1.605469-17.234375-2.550781-21.320312-10.277344-.078125-.152343-8.839844-16.59375-21-32.578125-16.035156-21.082031-26.777344-26.652344-30.214844-26.652344-3.3125 0-13.433594 5.519532-28.0625 26.417969-11.121094 15.886719-18.683594 31.835938-18.757812 31.996094-3.300782 7-10.34375 11.445313-18.050782 11.449219-.199218 0-.398437-.003906-.601562-.011719-7.941406-.238281-14.984375-5.160156-17.933594-12.539063-9.679688-24.015624-31.519531-57.316406-47.339844-57.316406-16.164062 0-39.785156 33.6875-50.625 58.007813-3.832031 8.609375-13.171875 13.375-22.390625 11.410156-9.21875-1.957031-15.8125-10.085937-15.8125-19.511719 0-.105468-.125-15.3125-4.683593-29.707031-6.394532-20.195313-15.023438-20.195313-18.269532-20.195313-27.769531 0-39.503906 32.859376-39.992187 34.257813l.039062-.109375-.011719-.003906c-2.648437 7.921875-10.109374 13.636718-18.921874 13.636718-11.023438 0-19.960938-8.933593-19.960938-19.960937 0-2.210937.375-4.332031 1.039062-6.324219h-.007812c.519531-1.558594 5.40625-15.625 16.566406-29.875 16.164063-20.632812 37.34375-31.542968 61.25-31.542968 13.863282 0 37.671875 5.082031 51.941406 36.53125 19.035157-24.25 39.136719-36.53125 59.839844-36.53125 22.789063 0 44.230469 14.726562 63.730469 43.769531 1.015625 1.511719 1.996094 3.023437 2.945313 4.523437 1.066406-1.605468 2.167968-3.222656 3.304687-4.84375 20.460937-29.238281 40.339844-43.449218 60.765625-43.449218 19.710938 0 39.6875 13.46875 61.027344 41.148437 14.214844-33.789063 34.65625-41.148437 49.753906-41.148437 44.738281 0 73.453125 52.515624 76.578125 58.503906zm-507.074219-409.59375c-1.0625-2.4375-1.660156-5.125-1.660156-7.957032 0-11.027343 8.9375-19.960937 19.960938-19.960937 8.769531 0 16.203124 5.664063 18.882812 13.523437l.050781-.015624-.039062-.109376c.488281 1.398438 12.222656 34.257813 39.992187 34.257813 3.246094 0 11.875 0 18.269532-20.195313 4.558593-14.390624 4.683593-29.601562 4.683593-29.753906.046875-9.414062 6.664063-17.542968 15.878907-19.46875 9.214843-1.921875 18.523437 2.824219 22.332031 11.429688 10.828125 24.300781 34.453125 57.988281 50.617187 57.988281 15.816406 0 37.660156-33.300781 47.34375-57.339844 2.96875-7.359375 10.015625-12.277343 17.949219-12.503906 7.949219-.207031 15.25 4.25 18.632813 11.429687.070312.148438 7.855468 16.507813 19.03125 32.386719 14.488281 20.585938 24.511718 26.027344 27.785156 26.027344 3.441406 0 14.179687-5.570313 30.21875-26.65625 12.15625-15.980469 20.917968-32.421875 21.007812-32.585937 4.097656-7.730469 12.753906-11.894532 21.347656-10.269532s15.132813 8.652344 16.125 17.34375c.015626.128906 1.90625 15.898438 7.386719 31 5.277344 14.542969 11.320313 21.167969 14.699219 21.167969 16.339844 0 35.128906-25.449219 41.191406-37.0625 5.101563-9.769531 17.160156-13.554687 26.933594-8.453125 9.769531 5.101562 13.554688 17.160156 8.453125 26.933594-3.125 5.988281-31.84375 58.503906-76.578125 58.503906-15.097656 0-35.542969-7.355469-49.757812-41.148438-21.339844 27.679688-41.316407 41.148438-61.027344 41.148438-20.425782 0-40.300782-14.210938-60.765625-43.449219-1.136719-1.621093-2.234375-3.238281-3.300781-4.84375-.949219 1.5-1.933594 3.011719-2.949219 4.523438-19.5 29.042969-40.941407 43.769531-63.730469 43.769531-20.699219 0-40.804688-12.28125-59.839844-36.535156-14.269531 31.453125-38.078125 36.535156-51.9375 36.535156-23.90625 0-45.089844-10.910156-61.253906-31.542969-9.308594-11.886719-14.25-23.640625-15.933594-28.117187zm0 0" fill="url(#a)"/></svg>